<svg width="210mm" height="297mm" viewBox="0 0 210 297" xmlns="http://www.w3.org/2000/svg"><rect width="100%" height="100%" fill="white"/>
    <rect x="10" y="15" width="62" height="34" fill="none" stroke="#EEEEEE" stroke-width="0.1" stroke-dasharray="1"/>
    <g transform="translate(11.0,17.0)"><rect width="60" height="30" fill="#E85D4F" rx="2" /><rect x="1.5" y="1.5" width="57" height="27" rx="2" fill="none" stroke="white" stroke-width="2" stroke-dasharray="1,2" /><text x="30.0" y="13.425" text-anchor="middle" font-family="Arial" font-size="4.5" font-weight="bold" fill="white">Civil Rights Act</text><text x="30.0" y="18.825" text-anchor="middle" font-family="Arial" font-size="4.5" font-weight="bold" fill="white">1964</text><text x="2" y="5" font-family="Arial" font-size="2" fill="white" fill-opacity="0.6">[L3]</text></g>
    <rect x="74" y="15" width="62" height="34" fill="none" stroke="#EEEEEE" stroke-width="0.1" stroke-dasharray="1"/>
    <g transform="translate(75.0,17.0)"><rect width="60" height="30" fill="#E85D4F" rx="2" /><rect x="1.5" y="1.5" width="57" height="27" rx="2" fill="none" stroke="white" stroke-width="2" stroke-dasharray="1,2" /><text x="30.0" y="13.425" text-anchor="middle" font-family="Arial" font-size="4.5" font-weight="bold" fill="white">Voting Rights</text><text x="30.0" y="18.825" text-anchor="middle" font-family="Arial" font-size="4.5" font-weight="bold" fill="white">Act 1965</text><text x="2" y="5" font-family="Arial" font-size="2" fill="white" fill-opacity="0.6">[L3]</text></g>
    <rect x="138" y="15" width="62" height="34" fill="none" stroke="#EEEEEE" stroke-width="0.1" stroke-dasharray="1"/>
    <g transform="translate(139.0,17.0)"><rect width="60" height="30" fill="#E85D4F" rx="2" /><rect x="1.5" y="1.5" width="57" height="27" rx="2" fill="none" stroke="white" stroke-width="2" stroke-dasharray="1,2" /><text x="30.0" y="13.425" text-anchor="middle" font-family="Arial" font-size="4.5" font-weight="bold" fill="white">Plessy v.</text><text x="30.0" y="18.825" text-anchor="middle" font-family="Arial" font-size="4.5" font-weight="bold" fill="white">Ferguson</text><text x="2" y="5" font-family="Arial" font-size="2" fill="white" fill-opacity="0.6">[L3]</text></g>
    <rect x="10" y="51" width="62" height="34" fill="none" stroke="#EEEEEE" stroke-width="0.1" stroke-dasharray="1"/>
    <g transform="translate(11.0,53.0)"><rect width="60" height="30" fill="#E85D4F" rx="2" /><rect x="1.5" y="1.5" width="57" height="27" rx="2" fill="none" stroke="white" stroke-width="2" stroke-dasharray="1,2" /><text x="30.0" y="13.425" text-anchor="middle" font-family="Arial" font-size="4.5" font-weight="bold" fill="white">Southern</text><text x="30.0" y="18.825" text-anchor="middle" font-family="Arial" font-size="4.5" font-weight="bold" fill="white">Manifesto</text><text x="2" y="5" font-family="Arial" font-size="2" fill="white" fill-opacity="0.6">[L3]</text></g>
    <rect x="74" y="51" width="62" height="34" fill="none" stroke="#EEEEEE" stroke-width="0.1" stroke-dasharray="1"/>
    <g transform="translate(75.0,53.0)"><rect width="60" height="30" fill="#E85D4F" rx="2" /><rect x="1.5" y="1.5" width="57" height="27" rx="2" fill="none" stroke="white" stroke-width="1" /><text x="30.0" y="16.125" text-anchor="middle" font-family="Arial" font-size="4.5" font-weight="bold" fill="white">Legal Success</text><text x="2" y="5" font-family="Arial" font-size="2" fill="white" fill-opacity="0.6">[L4]</text></g>
    <rect x="138" y="51" width="62" height="34" fill="none" stroke="#EEEEEE" stroke-width="0.1" stroke-dasharray="1"/>
    <g transform="translate(139.0,53.0)"><rect width="60" height="30" fill="#E85D4F" rx="2" /><rect x="1.5" y="1.5" width="57" height="27" rx="2" fill="none" stroke="white" stroke-width="1" /><text x="30.0" y="13.425" text-anchor="middle" font-family="Arial" font-size="4.5" font-weight="bold" fill="white">Social</text><text x="30.0" y="18.825" text-anchor="middle" font-family="Arial" font-size="4.5" font-weight="bold" fill="white">Inequality</text><text x="2" y="5" font-family="Arial" font-size="2" fill="white" fill-opacity="0.6">[L4]</text></g>
    <rect x="10" y="87" width="62" height="34" fill="none" stroke="#EEEEEE" stroke-width="0.1" stroke-dasharray="1"/>
    <g transform="translate(11.0,89.0)"><rect width="60" height="30" fill="#E85D4F" rx="2" /><rect x="1.5" y="1.5" width="57" height="27" rx="2" fill="none" stroke="white" stroke-width="1" /><text x="30.0" y="16.125" text-anchor="middle" font-family="Arial" font-size="4.5" font-weight="bold" fill="white">White Backlash</text><text x="2" y="5" font-family="Arial" font-size="2" fill="white" fill-opacity="0.6">[L4]</text></g>
    <rect x="74" y="87" width="62" height="34" fill="none" stroke="#EEEEEE" stroke-width="0.1" stroke-dasharray="1"/>
    <g transform="translate(75.0,89.0)"><rect width="60" height="30" fill="#E85D4F" rx="2" /><rect x="1.5" y="1.5" width="57" height="27" rx="2" fill="none" stroke="white" stroke-width="1" /><text x="30.0" y="16.125" text-anchor="middle" font-family="Arial" font-size="4.5" font-weight="bold" fill="white">Radicalisation</text><text x="2" y="5" font-family="Arial" font-size="2" fill="white" fill-opacity="0.6">[L4]</text></g>
    <rect x="138" y="87" width="62" height="34" fill="none" stroke="#EEEEEE" stroke-width="0.1" stroke-dasharray="1"/>
    <g transform="translate(139.0,89.0)"><rect width="60" height="30" fill="#E85D4F" rx="2" /><rect x="1.5" y="1.5" width="57" height="27" rx="2" fill="none" stroke="white" stroke-width="1" /><text x="30.0" y="13.425" text-anchor="middle" font-family="Arial" font-size="4.5" font-weight="bold" fill="white">De Facto</text><text x="30.0" y="18.825" text-anchor="middle" font-family="Arial" font-size="4.5" font-weight="bold" fill="white">Segregation</text><text x="2" y="5" font-family="Arial" font-size="2" fill="white" fill-opacity="0.6">[L4]</text></g>
    <rect x="10" y="123" width="62" height="34" fill="none" stroke="#EEEEEE" stroke-width="0.1" stroke-dasharray="1"/>
    <g transform="translate(18.5,131.0)"><rect width="45" height="18" fill="#9333EA" rx="2" /><rect x="1.5" y="1.5" width="42" height="15" rx="2" fill="none" stroke="white" stroke-width="1.5" stroke-dasharray="4,3" /><text x="22.5" y="7.67" text-anchor="middle" font-family="Arial" font-size="3.8" font-weight="bold" fill="white">Federal</text><text x="22.5" y="12.23" text-anchor="middle" font-family="Arial" font-size="3.8" font-weight="bold" fill="white">Enforcement</text><text x="2" y="5" font-family="Arial" font-size="2" fill="white" fill-opacity="0.6">[MECHANISM]</text></g>
    <rect x="74" y="123" width="62" height="34" fill="none" stroke="#EEEEEE" stroke-width="0.1" stroke-dasharray="1"/>
    <g transform="translate(82.5,131.0)"><rect width="45" height="18" fill="#9333EA" rx="2" /><rect x="1.5" y="1.5" width="42" height="15" rx="2" fill="none" stroke="white" stroke-width="1.5" stroke-dasharray="4,3" /><text x="22.5" y="9.950000000000001" text-anchor="middle" font-family="Arial" font-size="3.8" font-weight="bold" fill="white">Media Exposure</text><text x="2" y="5" font-family="Arial" font-size="2" fill="white" fill-opacity="0.6">[MECHANISM]</text></g>
    <rect x="138" y="123" width="62" height="34" fill="none" stroke="#EEEEEE" stroke-width="0.1" stroke-dasharray="1"/>
    <g transform="translate(146.5,131.0)"><rect width="45" height="18" fill="#9333EA" rx="2" /><rect x="1.5" y="1.5" width="42" height="15" rx="2" fill="none" stroke="white" stroke-width="1.5" stroke-dasharray="4,3" /><text x="22.5" y="7.67" text-anchor="middle" font-family="Arial" font-size="3.8" font-weight="bold" fill="white">Grassroots</text><text x="22.5" y="12.23" text-anchor="middle" font-family="Arial" font-size="3.8" font-weight="bold" fill="white">Pressure</text><text x="2" y="5" font-family="Arial" font-size="2" fill="white" fill-opacity="0.6">[MECHANISM]</text></g>
    <rect x="10" y="159" width="62" height="34" fill="none" stroke="#EEEEEE" stroke-width="0.1" stroke-dasharray="1"/>
    <g transform="translate(18.5,167.0)"><rect width="45" height="18" fill="#9333EA" rx="2" /><rect x="1.5" y="1.5" width="42" height="15" rx="2" fill="none" stroke="white" stroke-width="1.5" stroke-dasharray="4,3" /><text x="22.5" y="9.950000000000001" text-anchor="middle" font-family="Arial" font-size="3.8" font-weight="bold" fill="white">Cold War Image</text><text x="2" y="5" font-family="Arial" font-size="2" fill="white" fill-opacity="0.6">[MECHANISM]</text></g>
    <rect x="74" y="159" width="62" height="34" fill="none" stroke="#EEEEEE" stroke-width="0.1" stroke-dasharray="1"/>
    <g transform="translate(82.5,167.0)"><rect width="45" height="18" fill="#9333EA" rx="2" /><rect x="1.5" y="1.5" width="42" height="15" rx="2" fill="none" stroke="white" stroke-width="1.5" stroke-dasharray="4,3" /><text x="22.5" y="7.67" text-anchor="middle" font-family="Arial" font-size="3.8" font-weight="bold" fill="white">Implementation</text><text x="22.5" y="12.23" text-anchor="middle" font-family="Arial" font-size="3.8" font-weight="bold" fill="white">Gap</text><text x="2" y="5" font-family="Arial" font-size="2" fill="white" fill-opacity="0.6">[MECHANISM]</text></g>
    <rect x="138" y="159" width="62" height="34" fill="none" stroke="#EEEEEE" stroke-width="0.1" stroke-dasharray="1"/>
    <g transform="translate(146.5,167.0)"><rect width="45" height="18" fill="#9333EA" rx="2" /><rect x="1.5" y="1.5" width="42" height="15" rx="2" fill="none" stroke="white" stroke-width="1.5" stroke-dasharray="4,3" /><text x="22.5" y="7.67" text-anchor="middle" font-family="Arial" font-size="3.8" font-weight="bold" fill="white">Economic</text><text x="22.5" y="12.23" text-anchor="middle" font-family="Arial" font-size="3.8" font-weight="bold" fill="white">Boycott</text><text x="2" y="5" font-family="Arial" font-size="2" fill="white" fill-opacity="0.6">[MECHANISM]</text></g></svg>