<svg width="210mm" height="297mm" viewBox="0 0 210 297" xmlns="http://www.w3.org/2000/svg"><rect width="100%" height="100%" fill="white"/>
<g transform="translate(13.0,17.0)"><rect width="60" height="30" fill="white" stroke="#EEE" stroke-width="0.1" rx="2" /><g color="#E85D4F"><rect x="1.5" y="1.5" width="57" height="27" rx="2" fill="none" stroke="currentColor" stroke-width="1.5"/><rect x="3.5" y="3.5" width="53" height="23" rx="1" fill="none" stroke="currentColor" stroke-width="0.5"/><text x="30.0" y="13.32" text-anchor="middle" font-family="Arial" font-size="4.8" font-weight="bold" fill="#E85D4F">Civil Rights</text><text x="30.0" y="19.08" text-anchor="middle" font-family="Arial" font-size="4.8" font-weight="bold" fill="#E85D4F">Movement</text><text x="2" y="5" font-family="Arial" font-size="2" fill="#E85D4F" fill-opacity="0.6">[L0]</text></g></g>
<g transform="translate(77.0,17.0)"><rect width="60" height="30" fill="white" stroke="#EEE" stroke-width="0.1" rx="2" /><g color="#E85D4F"><rect x="1.5" y="1.5" width="57" height="27" rx="2" fill="none" stroke="currentColor" stroke-width="1.5" stroke-dasharray="4,2" /><text x="30.0" y="13.32" text-anchor="middle" font-family="Arial" font-size="4.8" font-weight="bold" fill="#E85D4F">Montgomery Bus</text><text x="30.0" y="19.08" text-anchor="middle" font-family="Arial" font-size="4.8" font-weight="bold" fill="#E85D4F">Boycott</text><text x="2" y="5" font-family="Arial" font-size="2" fill="#E85D4F" fill-opacity="0.6">[L1]</text></g></g>
<g transform="translate(141.0,17.0)"><rect width="60" height="30" fill="white" stroke="#EEE" stroke-width="0.1" rx="2" /><g color="#E85D4F"><rect x="1.5" y="1.5" width="57" height="27" rx="2" fill="none" stroke="currentColor" stroke-width="1.5" stroke-dasharray="4,2" /><text x="30.0" y="13.32" text-anchor="middle" font-family="Arial" font-size="4.8" font-weight="bold" fill="#E85D4F">Little Rock</text><text x="30.0" y="19.08" text-anchor="middle" font-family="Arial" font-size="4.8" font-weight="bold" fill="#E85D4F">Nine 1957</text><text x="2" y="5" font-family="Arial" font-size="2" fill="#E85D4F" fill-opacity="0.6">[L1]</text></g></g>
<g transform="translate(13.0,53.0)"><rect width="60" height="30" fill="white" stroke="#EEE" stroke-width="0.1" rx="2" /><g color="#E85D4F"><rect x="1.5" y="1.5" width="57" height="27" rx="2" fill="none" stroke="currentColor" stroke-width="1.5" stroke-dasharray="4,2" /><text x="30.0" y="13.32" text-anchor="middle" font-family="Arial" font-size="4.8" font-weight="bold" fill="#E85D4F">Greensboro</text><text x="30.0" y="19.08" text-anchor="middle" font-family="Arial" font-size="4.8" font-weight="bold" fill="#E85D4F">Sit-ins</text><text x="2" y="5" font-family="Arial" font-size="2" fill="#E85D4F" fill-opacity="0.6">[L1]</text></g></g>
<g transform="translate(77.0,53.0)"><rect width="60" height="30" fill="white" stroke="#EEE" stroke-width="0.1" rx="2" /><g color="#E85D4F"><rect x="1.5" y="1.5" width="57" height="27" rx="2" fill="none" stroke="currentColor" stroke-width="2" stroke-dasharray="1,2" /><text x="30.0" y="13.32" text-anchor="middle" font-family="Arial" font-size="4.8" font-weight="bold" fill="#E85D4F">Martin Luther</text><text x="30.0" y="19.08" text-anchor="middle" font-family="Arial" font-size="4.8" font-weight="bold" fill="#E85D4F">King Jr</text><text x="2" y="5" font-family="Arial" font-size="2" fill="#E85D4F" fill-opacity="0.6">[L2]</text></g></g>
<g transform="translate(141.0,53.0)"><rect width="60" height="30" fill="white" stroke="#EEE" stroke-width="0.1" rx="2" /><g color="#E85D4F"><rect x="1.5" y="1.5" width="57" height="27" rx="2" fill="none" stroke="currentColor" stroke-width="2" stroke-dasharray="1,2" /><text x="30.0" y="16.200000000000003" text-anchor="middle" font-family="Arial" font-size="4.8" font-weight="bold" fill="#E85D4F">Rosa Parks</text><text x="2" y="5" font-family="Arial" font-size="2" fill="#E85D4F" fill-opacity="0.6">[L2]</text></g></g>
<g transform="translate(13.0,89.0)"><rect width="60" height="30" fill="white" stroke="#EEE" stroke-width="0.1" rx="2" /><g color="#E85D4F"><rect x="1.5" y="1.5" width="57" height="27" rx="2" fill="none" stroke="currentColor" stroke-width="2" stroke-dasharray="1,2" /><text x="30.0" y="16.200000000000003" text-anchor="middle" font-family="Arial" font-size="4.8" font-weight="bold" fill="#E85D4F">NAACP</text><text x="2" y="5" font-family="Arial" font-size="2" fill="#E85D4F" fill-opacity="0.6">[L2]</text></g></g>
<g transform="translate(77.0,89.0)"><rect width="60" height="30" fill="white" stroke="#EEE" stroke-width="0.1" rx="2" /><g color="#E85D4F"><rect x="1.5" y="1.5" width="57" height="27" rx="2" fill="none" stroke="currentColor" stroke-width="2" stroke-dasharray="1,2" /><text x="30.0" y="16.200000000000003" text-anchor="middle" font-family="Arial" font-size="4.8" font-weight="bold" fill="#E85D4F">SCLC</text><text x="2" y="5" font-family="Arial" font-size="2" fill="#E85D4F" fill-opacity="0.6">[L2]</text></g></g>
<g transform="translate(141.0,89.0)"><rect width="60" height="30" fill="white" stroke="#EEE" stroke-width="0.1" rx="2" /><g color="#E85D4F"><rect x="1.5" y="1.5" width="57" height="27" rx="2" fill="none" stroke="currentColor" stroke-width="2" stroke-dasharray="1,2" /><text x="30.0" y="16.200000000000003" text-anchor="middle" font-family="Arial" font-size="4.8" font-weight="bold" fill="#E85D4F">SNCC</text><text x="2" y="5" font-family="Arial" font-size="2" fill="#E85D4F" fill-opacity="0.6">[L2]</text></g></g>
<g transform="translate(13.0,125.0)"><rect width="60" height="30" fill="white" stroke="#EEE" stroke-width="0.1" rx="2" /><g color="#E85D4F"><rect x="1.5" y="1.5" width="57" height="27" rx="2" fill="none" stroke="currentColor" stroke-width="2.5" /><text x="30.0" y="13.32" text-anchor="middle" font-family="Arial" font-size="4.8" font-weight="bold" fill="#E85D4F">Civil Rights Act</text><text x="30.0" y="19.08" text-anchor="middle" font-family="Arial" font-size="4.8" font-weight="bold" fill="#E85D4F">1964</text><text x="2" y="5" font-family="Arial" font-size="2" fill="#E85D4F" fill-opacity="0.6">[L3]</text></g></g>
<g transform="translate(77.0,125.0)"><rect width="60" height="30" fill="white" stroke="#EEE" stroke-width="0.1" rx="2" /><g color="#E85D4F"><rect x="1.5" y="1.5" width="57" height="27" rx="2" fill="none" stroke="currentColor" stroke-width="2.5" /><text x="30.0" y="13.32" text-anchor="middle" font-family="Arial" font-size="4.8" font-weight="bold" fill="#E85D4F">Voting Rights</text><text x="30.0" y="19.08" text-anchor="middle" font-family="Arial" font-size="4.8" font-weight="bold" fill="#E85D4F">Act 1965</text><text x="2" y="5" font-family="Arial" font-size="2" fill="#E85D4F" fill-opacity="0.6">[L3]</text></g></g>
<g transform="translate(141.0,125.0)"><rect width="60" height="30" fill="white" stroke="#EEE" stroke-width="0.1" rx="2" /><g color="#E85D4F"><rect x="1.5" y="1.5" width="57" height="27" rx="2" fill="none" stroke="currentColor" stroke-width="2.5" /><text x="30.0" y="13.32" text-anchor="middle" font-family="Arial" font-size="4.8" font-weight="bold" fill="#E85D4F">Brown v Board</text><text x="30.0" y="19.08" text-anchor="middle" font-family="Arial" font-size="4.8" font-weight="bold" fill="#E85D4F">1954</text><text x="2" y="5" font-family="Arial" font-size="2" fill="#E85D4F" fill-opacity="0.6">[L3]</text></g></g>
<g transform="translate(13.0,161.0)"><rect width="60" height="30" fill="white" stroke="#EEE" stroke-width="0.1" rx="2" /><g color="#E85D4F"><rect x="1.5" y="1.5" width="57" height="27" rx="2" fill="none" stroke="currentColor" stroke-width="2.5" /><text x="30.0" y="16.200000000000003" text-anchor="middle" font-family="Arial" font-size="4.8" font-weight="bold" fill="#E85D4F">Jim Crow Laws</text><text x="2" y="5" font-family="Arial" font-size="2" fill="#E85D4F" fill-opacity="0.6">[L3]</text></g></g>
<g transform="translate(84.5,167.0)"><rect width="45" height="18" fill="white" stroke="#EEE" stroke-width="0.1" rx="2" /><g color="#9333EA"><rect x="1.5" y="1.5" width="42" height="15" rx="2" fill="none" stroke="currentColor" stroke-width="1" /><text x="22.5" y="7.67" text-anchor="middle" font-family="Arial" font-size="3.8" font-weight="bold" fill="#9333EA">Federal</text><text x="22.5" y="12.23" text-anchor="middle" font-family="Arial" font-size="3.8" font-weight="bold" fill="#9333EA">Enforcement</text><text x="2" y="5" font-family="Arial" font-size="2" fill="#9333EA" fill-opacity="0.6">[MECHANISM]</text></g></g>
<g transform="translate(148.5,167.0)"><rect width="45" height="18" fill="white" stroke="#EEE" stroke-width="0.1" rx="2" /><g color="#9333EA"><rect x="1.5" y="1.5" width="42" height="15" rx="2" fill="none" stroke="currentColor" stroke-width="1" /><text x="22.5" y="7.67" text-anchor="middle" font-family="Arial" font-size="3.8" font-weight="bold" fill="#9333EA">Court Ruling</text><text x="22.5" y="12.23" text-anchor="middle" font-family="Arial" font-size="3.8" font-weight="bold" fill="#9333EA">Pressure</text><text x="2" y="5" font-family="Arial" font-size="2" fill="#9333EA" fill-opacity="0.6">[MECHANISM]</text></g></g>
<g transform="translate(20.5,203.0)"><rect width="45" height="18" fill="white" stroke="#EEE" stroke-width="0.1" rx="2" /><g color="#9333EA"><rect x="1.5" y="1.5" width="42" height="15" rx="2" fill="none" stroke="currentColor" stroke-width="1" /><text x="22.5" y="9.950000000000001" text-anchor="middle" font-family="Arial" font-size="3.8" font-weight="bold" fill="#9333EA">Media Exposure</text><text x="2" y="5" font-family="Arial" font-size="2" fill="#9333EA" fill-opacity="0.6">[MECHANISM]</text></g></g>
<g transform="translate(84.5,203.0)"><rect width="45" height="18" fill="white" stroke="#EEE" stroke-width="0.1" rx="2" /><g color="#9333EA"><rect x="1.5" y="1.5" width="42" height="15" rx="2" fill="none" stroke="currentColor" stroke-width="1" /><text x="22.5" y="7.67" text-anchor="middle" font-family="Arial" font-size="3.8" font-weight="bold" fill="#9333EA">Economic</text><text x="22.5" y="12.23" text-anchor="middle" font-family="Arial" font-size="3.8" font-weight="bold" fill="#9333EA">Boycott</text><text x="2" y="5" font-family="Arial" font-size="2" fill="#9333EA" fill-opacity="0.6">[MECHANISM]</text></g></g>
<g transform="translate(148.5,203.0)"><rect width="45" height="18" fill="white" stroke="#EEE" stroke-width="0.1" rx="2" /><g color="#9333EA"><rect x="1.5" y="1.5" width="42" height="15" rx="2" fill="none" stroke="currentColor" stroke-width="1" /><text x="22.5" y="7.67" text-anchor="middle" font-family="Arial" font-size="3.8" font-weight="bold" fill="#9333EA">Grassroots</text><text x="22.5" y="12.23" text-anchor="middle" font-family="Arial" font-size="3.8" font-weight="bold" fill="#9333EA">Mobilization</text><text x="2" y="5" font-family="Arial" font-size="2" fill="#9333EA" fill-opacity="0.6">[MECHANISM]</text></g></g></svg>